<svg width="30" height="30" viewBox="0 0 30 30" fill="none" xmlns="http://www.w3.org/2000/svg">
<rect x="1" y="1" width="28" height="28" rx="14" fill="#E0FFE5" stroke="#4CD964" stroke-width="2"/>
<rect x="6" y="6" width="18" height="18" rx="9" fill="#4CD964"/>
<path d="M17.8306 9.22535L17.4441 8.91428C17.2536 8.76117 17.1428 8.76294 16.9797 8.96441L14.1707 12.4311L12.8634 11.3449C12.683 11.1934 12.5702 11.2015 12.4219 11.3868L12.1236 11.7752C11.9723 11.9658 11.9916 12.0739 12.1705 12.2233L14.0337 13.7644C14.2255 13.9256 14.3334 13.909 14.4817 13.7287L17.8791 9.68952C18.0386 9.49773 18.029 9.38313 17.8306 9.22535Z" fill="white"/>
<path d="M10.5078 14.6611C11.417 14.6611 12.0732 15.1738 12.0732 15.9258C12.0732 16.5342 11.6255 16.999 10.959 17.1426V17.5938C11.4443 17.5664 11.9331 17.522 12.3877 17.457L12.4561 18.0928C11.1777 18.3184 9.74902 18.3457 8.70996 18.3457L8.62109 17.6553C9.05176 17.6553 9.5542 17.6519 10.084 17.6348V17.1494C9.39697 17.0127 8.93555 16.5444 8.94238 15.9258C8.93555 15.1738 9.5918 14.6611 10.5078 14.6611ZM10.5078 15.3174C10.0635 15.3242 9.74902 15.5361 9.75586 15.9258C9.74902 16.3018 10.0635 16.5273 10.5078 16.5273C10.9521 16.5273 11.2529 16.3018 11.2529 15.9258C11.2529 15.5361 10.9521 15.3242 10.5078 15.3174ZM13.6113 14.415V16.3701H14.4043V17.0947H13.6113V19.1592H12.7363V14.415H13.6113ZM13.8232 19.8154V20.5127H9.44141V18.7422H10.3164V19.8154H13.8232ZM20.3789 19.2207V19.9385H14.6846V19.2207H16.1406V18.2705H15.3408V16.1787H18.8613V15.5088H15.334V14.8115H19.7227V16.876H16.2158V17.5664H19.8662V18.2705H18.9844V19.2207H20.3789ZM16.9883 19.2207H18.1299V18.2705H16.9883V19.2207Z" fill="white"/>
</svg>
