<svg width="241" height="166" viewBox="0 0 241 166" fill="none" xmlns="http://www.w3.org/2000/svg">
<path d="M129.075 32.2029C124.3 32.2029 120.427 35.6607 120.427 39.9245V116.516C123.942 111.433 130.157 108.337 136.85 108.337H178.163V32.2029H129.075Z" fill="#045235"/>
<path d="M129.075 33.8286C124.3 33.8286 120.427 36.5475 120.427 39.9022V100.139C123.942 96.14 130.157 93.7055 136.85 93.7055H178.163V33.8286H129.075Z" fill="white"/>
<path d="M111.779 49.1212H62.6911V125.256H104.439L120.424 133.716V56.8429C120.424 52.5791 116.551 49.1212 111.776 49.1212H111.779Z" fill="#045235"/>
<path d="M118.011 51.472H65.1072V110.582H118.011V51.472Z" fill="white"/>
<path d="M120.427 136.07C120.032 136.07 119.634 135.972 119.276 135.785L103.83 127.609H62.6911C61.3572 127.609 60.2751 126.558 60.2751 125.256V49.1185C60.2751 47.819 61.3543 46.7649 62.6911 46.7649H111.779C117.879 46.7649 122.843 51.288 122.843 56.8429V133.714C122.843 134.545 122.394 135.314 121.664 135.735C121.28 135.956 120.856 136.067 120.427 136.067V136.07ZM65.1072 122.902H104.442C104.843 122.902 105.241 123 105.593 123.187L118.011 129.759V56.8457C118.011 53.8814 115.214 51.4721 111.779 51.4721H65.1072V122.902Z" fill="#152244"/>
<path d="M120.427 118.87C120.192 118.87 119.955 118.836 119.72 118.769C118.707 118.465 118.011 117.551 118.011 116.516V39.9273C118.011 34.3696 122.975 29.8492 129.075 29.8492H178.163C179.497 29.8492 180.579 30.9005 180.579 32.2028V108.337C180.579 109.637 179.5 110.691 178.163 110.691H136.85C130.999 110.691 125.474 113.426 122.431 117.832C121.973 118.493 121.214 118.87 120.427 118.87ZM129.075 34.5536C125.64 34.5536 122.843 36.963 122.843 39.9273V110.585C126.699 107.643 131.614 105.984 136.85 105.984H175.747V34.5536H129.075Z" fill="#152244"/>
<path d="M79.738 93.2315H65.5023C62.5022 93.2315 60.0662 90.8612 60.0662 87.9359V56.8207C60.0662 53.8982 62.4994 51.5251 65.5023 51.5251H78.4899C83.7084 51.5251 87.5901 52.5988 90.3525 54.8045C92.4451 56.4693 94.9499 59.5926 94.9499 64.9857C94.9499 67.0939 94.469 69.0487 93.5186 70.8139C93.6646 70.9952 93.802 71.182 93.9365 71.3716C95.4365 73.5244 96.198 75.9784 96.198 78.6694C96.198 83.2455 94.7524 86.8819 91.9012 89.4725C89.1188 92.0017 85.1426 93.2315 79.738 93.2315Z" fill="white"/>
<path d="M120.856 108.123H114.739C112.667 108.123 110.774 106.974 109.861 105.161L106.051 97.6012V102.827C106.051 105.75 103.618 108.123 100.615 108.123H94.5749C91.5749 108.123 89.1388 105.752 89.1388 102.827V71.7118C89.1388 68.7894 91.572 66.4163 94.5749 66.4163H108.052C113.205 66.4163 117.27 67.7715 120.135 70.4402C122.153 72.3253 124.552 75.7218 124.552 81.2349C124.552 84.1044 123.899 86.6922 122.608 88.9231C122.139 89.7346 121.592 90.4819 120.971 91.1651L125.72 100.465C126.556 102.108 126.464 104.054 125.474 105.61C124.483 107.169 122.734 108.117 120.854 108.117L120.856 108.123ZM106.051 81.5361H107.709C107.714 81.4608 107.717 81.3743 107.717 81.2739C107.717 81.1819 107.717 81.0983 107.709 81.0313H106.051V81.5361Z" fill="white"/>
<path d="M102.25 96.1289H92.946C89.9438 96.1289 87.5099 98.4998 87.5099 101.424V102.827C87.5099 105.752 89.9438 108.123 92.946 108.123H102.25C105.252 108.123 107.686 105.752 107.686 102.827V101.424C107.686 98.4998 105.252 96.1289 102.25 96.1289Z" fill="white"/>
<path d="M152.076 103.404H146.225C143.9 103.404 141.837 101.965 141.081 99.8238L139.392 95.019H135.247L133.589 99.8043C132.845 101.957 130.773 103.404 128.442 103.404H122.588C120.825 103.404 119.17 102.571 118.151 101.171C117.135 99.768 116.877 97.9722 117.461 96.352L128.714 65.2368C129.482 63.1174 131.534 61.7008 133.841 61.7008H140.714C143.013 61.7008 145.063 63.1091 145.836 65.22L157.2 96.3353C157.793 97.9554 157.538 99.7569 156.519 101.162C155.503 102.568 153.845 103.404 152.079 103.404H152.076Z" fill="white"/>
<path d="M130.515 91.4106H121.211C118.209 91.4106 115.775 93.7816 115.775 96.7062V98.1089C115.775 101.034 118.209 103.404 121.211 103.404H130.515C133.517 103.404 135.951 101.034 135.951 98.1089V96.7062C135.951 93.7816 133.517 91.4106 130.515 91.4106Z" fill="white"/>
<path d="M153.333 91.4106H144.029C141.027 91.4106 138.593 93.7816 138.593 96.7062V98.1089C138.593 101.034 141.027 103.404 144.029 103.404H153.333C156.335 103.404 158.769 101.034 158.769 98.1089V96.7062C158.769 93.7816 156.335 91.4106 153.333 91.4106Z" fill="white"/>
<path d="M182.394 98.6888H176.276C174.204 98.6888 172.312 97.5399 171.396 95.7273L167.588 88.1646V93.3932C167.588 96.3157 165.155 98.6888 162.152 98.6888H156.112C153.112 98.6888 150.676 96.3184 150.676 93.3932V62.2752C150.676 59.3527 153.109 56.9796 156.112 56.9796H169.592C174.745 56.9796 178.81 58.3349 181.675 61.0064C183.691 62.8887 186.09 66.288 186.09 71.801C186.09 74.6705 185.437 77.2583 184.146 79.492C183.676 80.3007 183.13 81.048 182.508 81.7313L187.257 91.0313C188.093 92.6737 188.002 94.6202 187.011 96.1762C186.021 97.7351 184.272 98.6832 182.391 98.6832L182.394 98.6888ZM167.591 72.1022H169.249C169.255 72.0269 169.257 71.9405 169.257 71.8401C169.257 71.7453 169.257 71.6644 169.249 71.5947H167.591V72.0994V72.1022Z" fill="white"/>
<path d="M163.787 86.6923H154.483C151.481 86.6923 149.047 89.0632 149.047 91.9878V93.3905C149.047 96.3151 151.481 98.686 154.483 98.686H163.787C166.789 98.686 169.223 96.3151 169.223 93.3905V91.9878C169.223 89.0632 166.789 86.6923 163.787 86.6923Z" fill="white"/>
<path d="M183.381 86.6923H174.075C171.073 86.6923 168.639 89.0632 168.639 91.9878V93.3905C168.639 96.3151 171.073 98.686 174.075 98.686H183.381C186.384 98.686 188.818 96.3151 188.818 93.3905V91.9878C188.818 89.0632 186.384 86.6923 183.381 86.6923Z" fill="white"/>
<path d="M201.155 93.9704H195.078C192.078 93.9704 189.642 91.6001 189.642 88.6748V76.2711L179.042 60.4123C177.954 58.7838 177.868 56.7091 178.818 54.9997C179.769 53.293 181.601 52.2278 183.596 52.2278H189.865C191.729 52.2278 193.458 53.1564 194.457 54.6873L198.11 60.298L201.779 54.679C202.778 53.1508 204.507 52.2278 206.365 52.2278H212.634C214.627 52.2278 216.462 53.2902 217.412 54.9969C218.362 56.7035 218.279 58.7782 217.192 60.4068L206.591 76.3046V88.6748C206.591 91.5973 204.158 93.9704 201.155 93.9704Z" fill="white"/>
<path d="M202.767 81.9739H193.464C190.461 81.9739 188.027 84.3448 188.027 87.2694V88.6721C188.027 91.5968 190.461 93.9677 193.464 93.9677H202.767C205.769 93.9677 208.203 91.5968 208.203 88.6721V87.2694C208.203 84.3448 205.769 81.9739 202.767 81.9739Z" fill="white"/>
<path d="M213.671 51.5251H204.367C201.365 51.5251 198.931 53.896 198.931 56.8207V58.2234C198.931 61.148 201.365 63.5189 204.367 63.5189H213.671C216.673 63.5189 219.107 61.148 219.107 58.2234V56.8207C219.107 53.896 216.673 51.5251 213.671 51.5251Z" fill="white"/>
<path d="M191.7 51.5251H182.397C179.394 51.5251 176.961 53.896 176.961 56.8207V58.2234C176.961 61.148 179.394 63.5189 182.397 63.5189H191.7C194.702 63.5189 197.136 61.148 197.136 58.2234V56.8207C197.136 53.896 194.702 51.5251 191.7 51.5251Z" fill="white"/>
<path d="M59.6911 58.9707H53.6138C50.6115 58.9707 48.1777 61.3416 48.1777 64.2663V95.3815C48.1777 98.3062 50.6115 100.677 53.6138 100.677H59.6911C62.6933 100.677 65.1272 98.3062 65.1272 95.3815V64.2663C65.1272 61.3416 62.6933 58.9707 59.6911 58.9707Z" fill="white"/>
<path d="M61.3056 88.6805H52.0021C48.9999 88.6805 46.566 91.0514 46.566 93.9761V95.3788C46.566 98.3034 48.9999 100.674 52.0021 100.674H61.3056C64.3079 100.674 66.7417 98.3034 66.7417 95.3788V93.9761C66.7417 91.0514 64.3079 88.6805 61.3056 88.6805Z" fill="white"/>
<path d="M61.3056 58.9707H52.0021C48.9999 58.9707 46.566 61.3416 46.566 64.2663V65.6689C46.566 68.5936 48.9999 70.9645 52.0021 70.9645H61.3056C64.3079 70.9645 66.7417 68.5936 66.7417 65.6689V64.2663C66.7417 61.3416 64.3079 58.9707 61.3056 58.9707Z" fill="white"/>
<path d="M50.1014 108.123H27.1805C24.1805 108.123 21.7444 105.752 21.7444 102.827V71.7118C21.7444 68.7894 24.1776 66.4163 27.1805 66.4163H33.2234C36.2235 66.4163 38.6595 68.7866 38.6595 71.7118V93.2287H50.1014C53.1014 93.2287 55.5375 95.599 55.5375 98.5242V102.827C55.5375 105.75 53.1042 108.123 50.1014 108.123Z" fill="white"/>
<path d="M50.1014 89.1211H44.8885C41.8863 89.1211 39.4525 91.492 39.4525 94.4166V102.827C39.4525 105.752 41.8863 108.123 44.8885 108.123H50.1014C53.1036 108.123 55.5374 105.752 55.5374 102.827V94.4166C55.5374 91.492 53.1036 89.1211 50.1014 89.1211Z" fill="white"/>
<path d="M169.595 62.2751C173.319 62.2751 176.093 63.1285 177.92 64.8323C179.746 66.5389 180.656 68.8618 180.656 71.8038C180.656 73.767 180.241 75.4652 179.411 76.8986C178.581 78.3319 177.333 79.4418 175.673 80.2282L182.394 93.396H176.277L170.236 81.405H162.155V93.396H156.115V62.2807H169.595V62.2751ZM169.406 77.395C171.015 77.395 172.3 76.9153 173.256 75.9616C174.213 75.0051 174.691 73.6303 174.691 71.8401C174.691 70.0498 174.213 68.7698 173.256 67.7743C172.3 66.7843 171.018 66.2879 169.406 66.2879H162.155V77.395H169.406Z" fill="#152244"/>
<path d="M163.79 91.9878H154.483V93.3933H163.79V91.9878Z" fill="#152244"/>
<path d="M183.382 91.9878H174.075V93.3933H183.382V91.9878Z" fill="#152244"/>
<path d="M78.4927 56.8207C82.3715 56.8207 85.174 57.515 86.9116 58.901C88.6521 60.2869 89.5166 62.317 89.5166 64.9857C89.5166 66.4107 89.1588 67.6851 88.4403 68.8117C87.7246 69.9411 86.5853 70.8585 85.0223 71.5724C87.0863 72.1608 88.5576 73.0866 89.4393 74.3498C90.3181 75.6131 90.7618 77.052 90.7618 78.6722C90.7618 81.7368 89.9059 84.0486 88.1941 85.6046C86.4822 87.1607 83.6654 87.9387 79.7379 87.9387H65.5022V56.8235H78.4898L78.4927 56.8207ZM78.341 69.8044C80.0271 69.8044 81.3066 69.4614 82.1712 68.7754C83.0414 68.0894 83.4736 66.8987 83.4736 65.2088C83.4736 63.7866 83.0471 62.7465 82.1883 62.0828C81.3353 61.4191 80.0385 61.09 78.3009 61.09H71.5423V69.8072H78.3381L78.341 69.8044ZM79.549 83.6331C81.2608 83.6331 82.5376 83.1869 83.3849 82.2918C84.2265 81.3966 84.6473 80.2868 84.6473 78.9622C84.6473 77.6376 84.2208 76.4357 83.362 75.5043C82.5089 74.5729 81.2351 74.1072 79.549 74.1072H71.5452V83.6303H79.549V83.6331Z" fill="#152244"/>
<path d="M143.279 89.7234H131.348L128.442 98.1088H122.588L133.841 66.9935H140.714L152.076 98.1088H146.225L143.279 89.7234ZM132.819 85.4234H141.771L137.276 72.6237L132.822 85.4234H132.819Z" fill="#152244"/>
<path d="M130.518 96.7034H121.211V98.1088H130.518V96.7034Z" fill="#152244"/>
<path d="M153.333 96.7034H144.026V98.1088H153.333V96.7034Z" fill="#152244"/>
<path d="M195.078 88.6748V74.7011L183.599 57.5233H189.868L198.098 70.1752L206.365 57.5233H212.634L201.155 74.7374V88.6748H195.078Z" fill="#152244"/>
<path d="M202.77 87.2694H193.464V88.6749H202.77V87.2694Z" fill="#152244"/>
<path d="M213.671 56.8207H204.364V58.2261H213.671V56.8207Z" fill="#152244"/>
<path d="M191.7 56.8207H182.394V58.2261H191.7V56.8207Z" fill="#152244"/>
<path d="M59.6939 64.2662V95.3815H53.6137V64.2662H59.6939Z" fill="#152244"/>
<path d="M61.3055 93.9761H51.9992V95.3815H61.3055V93.9761Z" fill="#152244"/>
<path d="M61.3055 64.2662H51.9992V65.6717H61.3055V64.2662Z" fill="#152244"/>
<path d="M33.2234 98.5242H50.1013V102.827H27.1833V71.7118H33.2234V98.5242Z" fill="#152244"/>
<path d="M50.1013 94.4138H44.8885V102.827H50.1013V94.4138Z" fill="#152244"/>
<path d="M108.055 71.7118C111.779 71.7118 114.553 72.5651 116.379 74.2689C118.206 75.9756 119.116 78.2985 119.116 81.2404C119.116 83.2036 118.701 84.9019 117.871 86.3352C117.041 87.7686 115.792 88.8784 114.132 89.6648L120.854 102.833H114.736L108.696 90.8416H100.615V102.833H94.5748V71.7174H108.055V71.7118ZM107.869 86.8288C109.478 86.8288 110.763 86.3492 111.719 85.3955C112.675 84.439 113.153 83.0642 113.153 81.2739C113.153 79.4836 112.675 78.2037 111.719 77.2081C110.763 76.2182 109.48 75.7218 107.869 75.7218H100.618V86.8288H107.869Z" fill="#152244"/>
<path d="M102.249 101.422H92.9431V102.827H102.249V101.422Z" fill="#152244"/>
<path d="M121.841 101.422H112.535V102.827H121.841V101.422Z" fill="#152244"/>
</svg>
